<svg width="3195" height="1010" viewBox="0 0 3195 1010" fill="none" xmlns="http://www.w3.org/2000/svg">
<path d="M489.314 282.469H518.398L551.637 289.531L572.411 298.358L593.185 312.481L607.727 326.605L620.192 344.259L630.579 372.506L632.657 429L651.354 434.296L661.741 444.889L663.818 448.42V624.963L657.586 635.556L647.199 642.617L640.966 644.383H360.513L348.048 637.321L339.738 628.494L337.661 621.432V450.185L345.97 439.593L356.358 432.531L375.055 429L377.132 374.272L383.364 353.086L395.829 331.901L412.448 314.247L429.068 301.889L462.307 287.765L489.314 282.469Z" fill="white"/>
<path d="M489.314 312.481H518.398L539.172 317.778L564.101 330.136L580.721 346.025L593.185 367.21L597.34 390.16V429L595.263 430.765H412.449V374.272L420.758 354.852L435.3 337.197L451.92 324.839L472.694 316.012L489.314 312.481Z" fill="black"/>
<path d="M90.4459 642.617L98.7557 651.444L102.911 653.21V656.741L113.298 658.506L117.453 665.568L123.685 669.099L129.917 658.506L144.459 656.741L146.537 647.914H152.769V651.444L159.001 653.21L169.388 663.802V667.333H173.543L194.318 693.815L217.17 723.827L235.866 743.247L258.718 767.963L264.951 773.259V776.79H269.105L283.648 790.914L302.344 806.803L318.964 819.161L345.971 838.58H339.738L327.274 833.284H318.964L321.041 836.815L318.964 842.111L310.654 843.877L308.577 850.938L302.344 852.704H294.035L273.26 843.877L256.641 831.519V827.988H248.331L213.015 797.975L196.395 785.617L190.163 778.556L183.931 776.79L156.924 745.012L129.917 709.704L102.911 669.099L90.4459 647.914V642.617Z" fill="#FD288D"/>
<path d="M90.4459 263.049H92.5234L96.6783 351.321L102.911 400.753V430.765L104.988 436.062L107.065 466.074H102.911L100.833 471.37L88.3685 459.012L82.1362 446.654L71.749 406.049L65.5167 361.914L63.4393 340.728V314.247L67.5941 310.716L69.6716 305.42L82.1362 301.889L86.2911 282.469L88.3685 266.58L90.4459 263.049Z" fill="#222222"/>
<path d="M520.475 72.3827L535.017 74.1481L564.101 86.5061L618.115 105.926L630.579 111.222L643.044 112.988L678.36 120.049L711.599 125.346H773.922L813.394 121.815L859.097 112.988H875.717L877.794 109.457L911.033 104.16L921.42 100.63H931.808V104.16L861.175 121.815L813.394 130.642L782.232 134.173H719.909L674.206 128.877L632.657 120.049L586.953 105.926L545.404 88.2716L520.475 75.9136V72.3827Z" fill="#FD288D"/>
<path d="M499.701 513.741L514.243 517.272L522.553 527.864V540.222L516.32 547.284L514.243 586.123L510.088 593.185L495.546 594.951L487.236 586.123L485.159 545.519L478.927 536.691L481.004 524.333L491.391 515.506L499.701 513.741Z" fill="black"/>
<path d="M100.833 414.876H104.988L109.143 441.358H104.988L100.833 425.469V414.876Z" fill="#222222"/>
<path d="M501.223 47.8395L526.18 58.7319L563.616 76.8858L598.972 91.409L648.886 105.932L700.88 115.009L721.678 116.825H784.071L838.145 109.563L892.219 96.8552L971.25 75.0704L979.569 73.255L983.728 84.1474L1000.37 202.148L1004.53 252.979V316.518L1000.37 369.165L994.127 414.55L983.728 463.565L971.25 510.766L954.612 556.151L940.053 592.459L921.335 630.582L896.378 675.967L871.421 714.09L836.065 759.475L815.268 783.075L792.39 806.675L767.433 830.276L734.157 859.322L711.279 875.661L686.322 893.815L648.886 915.599L611.451 935.569L561.536 957.354L507.462 975.507L490.824 973.692V1010H488.745V971.877L467.947 966.43L415.953 946.461L370.198 924.676L339.002 906.522L309.885 888.368L282.848 868.399L262.05 852.06L214.216 810.306L195.498 790.337L166.381 757.66L145.583 730.429L122.706 697.752L101.908 665.074L79.031 623.32L56.1536 572.489L39.5155 528.92L24.9572 479.904L14.5583 436.334L4.15953 370.98L0 303.81V271.133L4.15953 207.594L22.8774 75.0704L27.0369 73.255L126.866 100.486L176.78 111.378L222.535 116.825H280.768L328.603 111.378L370.198 102.301L401.395 93.2244L442.99 76.8858L486.665 55.1011L490.824 49.6549V53.2857L501.223 47.8395ZM499.143 144.056L451.309 164.025L407.634 178.548L349.4 191.256L309.885 196.702L284.928 198.517H216.295L155.982 191.256L110.227 182.179H101.908L97.7489 209.41L93.5894 260.241V309.257L97.7489 361.903L106.068 418.181L118.547 470.827L137.264 527.104L158.062 576.12L183.019 623.32L203.817 657.813L235.013 699.567L255.811 724.983L274.529 744.952L297.406 766.737L311.965 781.26L343.161 806.675L372.278 826.645L401.395 844.799L442.99 866.584L490.824 886.553L509.542 888.368L555.297 870.214L594.812 850.245L623.929 832.091L650.966 813.937L675.923 793.968L692.561 781.26L713.359 763.106L732.077 743.137L752.875 721.352L775.752 692.305L798.629 661.444L827.746 612.428L844.384 581.566L867.262 528.92L885.98 472.642L898.458 419.996L906.777 369.165L910.937 318.334V256.61L904.697 182.179L885.98 183.994L838.145 193.071L811.108 196.702L786.151 198.517H715.439L669.684 193.071L611.451 182.179L563.616 167.656L517.861 149.502L507.462 144.056H499.143Z" fill="white"/>
<path d="M496.896 127.111L507.291 130.642L540.554 144.765L573.818 157.123L607.081 167.716L644.503 176.543L692.319 183.605L708.951 185.37H773.398L817.057 181.839L871.11 173.012L925.163 160.654L929.321 171.247L935.558 215.383V270.111L931.4 293.062L927.242 307.185L925.163 310.716L921.005 308.951L912.689 294.827L908.531 268.346H906.452L902.294 215.383V195.963L835.767 208.321L808.741 211.852L783.793 213.617H713.108L667.371 208.321L609.16 197.728L561.344 183.605L515.607 165.951L505.212 160.654L492.738 162.42L449.08 180.074L405.422 194.197L347.211 206.556L307.71 211.852L282.763 213.617H214.157L153.867 206.556L99.814 195.963L95.6561 243.63L93.5771 271.876V319.543L97.7351 370.741L101.893 400.753V430.765L103.972 436.062L106.051 466.074H101.893L99.814 471.37L87.3403 459.012L81.1034 446.654L70.7085 406.049L64.4716 361.914L62.3927 340.728V263.049L66.5506 211.852L72.7875 169.481L74.8665 162.42L95.6561 165.951L133.077 174.778L172.578 181.839L203.762 185.37H284.842L334.737 180.074L386.711 169.481L428.29 157.123L476.107 137.704L496.896 127.111Z" fill="white"/>
<path d="M1295.1 200.756C1293.96 189.297 1289.08 180.396 1280.47 174.051C1271.85 167.706 1260.15 164.534 1245.38 164.534C1235.34 164.534 1226.87 165.955 1219.95 168.795C1213.04 171.542 1207.74 175.377 1204.05 180.301C1200.45 185.225 1198.65 190.812 1198.65 197.062C1198.46 202.271 1199.55 206.816 1201.91 210.699C1204.38 214.581 1207.74 217.943 1212 220.784C1216.26 223.53 1221.19 225.945 1226.77 228.028C1232.36 230.017 1238.33 231.722 1244.67 233.142L1270.81 239.392C1283.5 242.233 1295.14 246.021 1305.75 250.756C1316.36 255.491 1325.54 261.314 1333.31 268.227C1341.07 275.14 1347.09 283.284 1351.35 292.659C1355.7 302.034 1357.93 312.782 1358.02 324.903C1357.93 342.706 1353.38 358.142 1344.39 371.21C1335.48 384.184 1322.61 394.269 1305.75 401.466C1288.99 408.568 1268.77 412.119 1245.1 412.119C1221.61 412.119 1201.16 408.521 1183.73 401.324C1166.4 394.127 1152.86 383.473 1143.11 369.364C1133.45 355.159 1128.38 337.593 1127.91 316.665H1187.43C1188.09 326.419 1190.88 334.562 1195.81 341.097C1200.83 347.536 1207.5 352.413 1215.84 355.727C1224.26 358.947 1233.78 360.557 1244.39 360.557C1254.8 360.557 1263.85 359.042 1271.52 356.011C1279.28 352.981 1285.3 348.767 1289.56 343.369C1293.82 337.972 1295.95 331.769 1295.95 324.761C1295.95 318.227 1294.01 312.735 1290.12 308.284C1286.34 303.833 1280.75 300.045 1273.36 296.92C1266.07 293.795 1257.12 290.955 1246.52 288.398L1214.84 280.443C1190.31 274.477 1170.95 265.15 1156.74 252.46C1142.54 239.771 1135.48 222.678 1135.58 201.182C1135.48 183.568 1140.17 168.18 1149.64 155.017C1159.21 141.854 1172.32 131.58 1188.99 124.193C1205.66 116.807 1224.59 113.114 1245.81 113.114C1267.4 113.114 1286.24 116.807 1302.34 124.193C1318.53 131.58 1331.13 141.854 1340.12 155.017C1349.12 168.18 1353.76 183.426 1354.05 200.756H1295.1ZM1399.39 408V117.091H1595.42V167.801H1460.9V237.119H1585.33V287.83H1460.9V357.29H1595.98V408H1399.39ZM1900.99 218.938H1838.78C1837.64 210.888 1835.32 203.739 1831.82 197.489C1828.31 191.144 1823.81 185.746 1818.32 181.295C1812.83 176.845 1806.48 173.436 1799.29 171.068C1792.18 168.701 1784.47 167.517 1776.13 167.517C1761.08 167.517 1747.96 171.258 1736.79 178.739C1725.61 186.125 1716.95 196.92 1710.79 211.125C1704.64 225.235 1701.56 242.375 1701.56 262.545C1701.56 283.284 1704.64 300.708 1710.79 314.818C1717.04 328.928 1725.75 339.581 1736.93 346.778C1748.1 353.975 1761.03 357.574 1775.71 357.574C1783.95 357.574 1791.57 356.485 1798.58 354.307C1805.68 352.129 1811.98 348.956 1817.47 344.79C1822.96 340.528 1827.51 335.367 1831.11 329.307C1834.8 323.246 1837.36 316.333 1838.78 308.568L1900.99 308.852C1899.38 322.205 1895.36 335.083 1888.92 347.489C1882.57 359.799 1874 370.831 1863.21 380.585C1852.51 390.244 1839.72 397.915 1824.86 403.597C1810.08 409.184 1793.37 411.977 1774.71 411.977C1748.77 411.977 1725.57 406.106 1705.11 394.364C1684.75 382.621 1668.65 365.623 1656.82 343.369C1645.07 321.116 1639.2 294.174 1639.2 262.545C1639.2 230.822 1645.17 203.833 1657.1 181.58C1669.03 159.326 1685.22 142.375 1705.68 130.727C1726.13 118.985 1749.14 113.114 1774.71 113.114C1791.57 113.114 1807.19 115.481 1821.59 120.216C1836.08 124.951 1848.91 131.864 1860.08 140.955C1871.26 149.951 1880.35 160.983 1887.36 174.051C1894.46 187.119 1899 202.081 1900.99 218.938ZM2124.78 117.091H2186.29V306.011C2186.29 327.223 2181.22 345.784 2171.09 361.693C2161.05 377.602 2146.99 390.008 2128.9 398.909C2110.82 407.716 2089.75 412.119 2065.69 412.119C2041.55 412.119 2020.43 407.716 2002.34 398.909C1984.25 390.008 1970.19 377.602 1960.15 361.693C1950.12 345.784 1945.1 327.223 1945.1 306.011V117.091H2006.6V300.756C2006.6 311.835 2009.02 321.684 2013.85 330.301C2018.77 338.919 2025.68 345.689 2034.59 350.614C2043.49 355.538 2053.86 358 2065.69 358C2077.63 358 2087.99 355.538 2096.8 350.614C2105.7 345.689 2112.57 338.919 2117.4 330.301C2122.32 321.684 2124.78 311.835 2124.78 300.756V117.091ZM2236.89 408V117.091H2351.67C2373.64 117.091 2392.39 121.021 2407.92 128.881C2423.54 136.646 2435.43 147.678 2443.57 161.977C2451.81 176.182 2455.93 192.896 2455.93 212.119C2455.93 231.437 2451.76 248.057 2443.43 261.977C2435.09 275.803 2423.02 286.409 2407.21 293.795C2391.49 301.182 2372.45 304.875 2350.1 304.875H2273.26V255.443H2340.16C2351.9 255.443 2361.66 253.833 2369.42 250.614C2377.19 247.394 2382.96 242.564 2386.75 236.125C2390.63 229.686 2392.58 221.684 2392.58 212.119C2392.58 202.46 2390.63 194.316 2386.75 187.688C2382.96 181.059 2377.14 176.04 2369.28 172.631C2361.51 169.127 2351.71 167.375 2339.88 167.375H2298.4V408H2236.89ZM2394 275.614L2466.3 408H2398.4L2327.66 275.614H2394ZM2499.39 408V117.091H2695.42V167.801H2560.9V237.119H2685.33V287.83H2560.9V357.29H2695.98V408H2499.39Z" fill="white"/>
<mask id="path-11-outside-1_0_3" maskUnits="userSpaceOnUse" x="1110" y="580" width="1902" height="168" fill="black">
<rect fill="white" x="1110" y="580" width="1902" height="168"/>
<path d="M1202.59 631.969C1202.07 626.24 1199.76 621.786 1195.64 618.609C1191.58 615.38 1185.77 613.766 1178.22 613.766C1173.22 613.766 1169.05 614.417 1165.72 615.719C1162.39 617.021 1159.89 618.818 1158.22 621.109C1156.55 623.349 1155.69 625.927 1155.64 628.844C1155.54 631.24 1156.01 633.349 1157.05 635.172C1158.14 636.995 1159.7 638.609 1161.73 640.016C1163.82 641.37 1166.32 642.568 1169.23 643.609C1172.15 644.651 1175.43 645.562 1179.08 646.344L1192.83 649.469C1200.74 651.188 1207.72 653.479 1213.77 656.344C1219.86 659.208 1224.96 662.62 1229.08 666.578C1233.24 670.536 1236.4 675.094 1238.53 680.25C1240.67 685.406 1241.76 691.187 1241.81 697.594C1241.76 707.698 1239.21 716.37 1234.16 723.609C1229.1 730.849 1221.84 736.396 1212.36 740.25C1202.93 744.104 1191.55 746.031 1178.22 746.031C1164.83 746.031 1153.17 744.026 1143.22 740.016C1133.27 736.005 1125.54 729.911 1120.02 721.734C1114.49 713.557 1111.66 703.219 1111.5 690.719H1148.53C1148.84 695.875 1150.22 700.172 1152.67 703.609C1155.12 707.047 1158.48 709.651 1162.75 711.422C1167.07 713.193 1172.07 714.078 1177.75 714.078C1182.96 714.078 1187.39 713.375 1191.03 711.969C1194.73 710.563 1197.57 708.609 1199.55 706.109C1201.53 703.609 1202.54 700.745 1202.59 697.516C1202.54 694.495 1201.6 691.917 1199.78 689.781C1197.96 687.594 1195.15 685.719 1191.34 684.156C1187.59 682.542 1182.8 681.057 1176.97 679.703L1160.25 675.797C1146.4 672.62 1135.48 667.49 1127.52 660.406C1119.55 653.271 1115.59 643.635 1115.64 631.5C1115.59 621.604 1118.24 612.932 1123.61 605.484C1128.97 598.036 1136.4 592.229 1145.88 588.063C1155.35 583.896 1166.16 581.812 1178.3 581.812C1190.69 581.812 1201.45 583.922 1210.56 588.141C1219.73 592.307 1226.84 598.167 1231.89 605.719C1236.94 613.271 1239.52 622.021 1239.63 631.969H1202.59ZM1347.83 631.969C1347.31 626.24 1344.99 621.786 1340.88 618.609C1336.81 615.38 1331.01 613.766 1323.45 613.766C1318.45 613.766 1314.29 614.417 1310.95 615.719C1307.62 617.021 1305.12 618.818 1303.45 621.109C1301.79 623.349 1300.93 625.927 1300.88 628.844C1300.77 631.24 1301.24 633.349 1302.28 635.172C1303.38 636.995 1304.94 638.609 1306.97 640.016C1309.05 641.37 1311.55 642.568 1314.47 643.609C1317.39 644.651 1320.67 645.562 1324.31 646.344L1338.06 649.469C1345.98 651.188 1352.96 653.479 1359 656.344C1365.09 659.208 1370.2 662.62 1374.31 666.578C1378.48 670.536 1381.63 675.094 1383.77 680.25C1385.9 685.406 1386.99 691.187 1387.05 697.594C1386.99 707.698 1384.44 716.37 1379.39 723.609C1374.34 730.849 1367.07 736.396 1357.59 740.25C1348.17 744.104 1336.79 746.031 1323.45 746.031C1310.07 746.031 1298.4 744.026 1288.45 740.016C1278.51 736.005 1270.77 729.911 1265.25 721.734C1259.73 713.557 1256.89 703.219 1256.73 690.719H1293.77C1294.08 695.875 1295.46 700.172 1297.91 703.609C1300.35 707.047 1303.71 709.651 1307.98 711.422C1312.31 713.193 1317.31 714.078 1322.98 714.078C1328.19 714.078 1332.62 713.375 1336.27 711.969C1339.96 710.563 1342.8 708.609 1344.78 706.109C1346.76 703.609 1347.78 700.745 1347.83 697.516C1347.78 694.495 1346.84 691.917 1345.02 689.781C1343.19 687.594 1340.38 685.719 1336.58 684.156C1332.83 682.542 1328.04 681.057 1322.2 679.703L1305.48 675.797C1291.63 672.62 1280.72 667.49 1272.75 660.406C1264.78 653.271 1260.82 643.635 1260.88 631.5C1260.82 621.604 1263.48 612.932 1268.84 605.484C1274.21 598.036 1281.63 592.229 1291.11 588.063C1300.59 583.896 1311.4 581.812 1323.53 581.812C1335.93 581.812 1346.68 583.922 1355.8 588.141C1364.96 592.307 1372.07 598.167 1377.13 605.719C1382.18 613.271 1384.76 622.021 1384.86 631.969H1347.83ZM1406.58 744V584H1445.25V712.594H1511.81V744H1406.58ZM1579.1 744V584H1690.66V615.406H1617.77V648.219H1684.96V679.703H1617.77V712.594H1690.66V744H1579.1ZM1851.05 584V744H1818.24L1754.57 651.656H1753.55V744H1714.88V584H1748.16L1811.13 676.187H1812.46V584H1851.05ZM2020.6 641.969H1981.54C1981.02 637.958 1979.95 634.339 1978.34 631.109C1976.72 627.88 1974.59 625.12 1971.93 622.828C1969.27 620.536 1966.12 618.792 1962.48 617.594C1958.88 616.344 1954.9 615.719 1950.52 615.719C1942.76 615.719 1936.07 617.62 1930.45 621.422C1924.87 625.224 1920.58 630.719 1917.55 637.906C1914.59 645.094 1913.1 653.792 1913.1 664C1913.1 674.625 1914.61 683.531 1917.63 690.719C1920.71 697.854 1925 703.245 1930.52 706.891C1936.1 710.484 1942.68 712.281 1950.29 712.281C1954.56 712.281 1958.44 711.734 1961.93 710.641C1965.47 709.547 1968.57 707.958 1971.23 705.875C1973.93 703.74 1976.15 701.161 1977.87 698.141C1979.64 695.068 1980.86 691.604 1981.54 687.75L2020.6 687.984C2019.92 695.068 2017.87 702.047 2014.43 708.922C2011.04 715.797 2006.38 722.073 2000.45 727.75C1994.51 733.375 1987.27 737.854 1978.73 741.187C1970.24 744.521 1960.5 746.187 1949.51 746.187C1935.03 746.187 1922.06 743.01 1910.6 736.656C1899.2 730.25 1890.18 720.927 1883.57 708.687C1876.96 696.448 1873.65 681.552 1873.65 664C1873.65 646.396 1877.01 631.474 1883.73 619.234C1890.45 606.995 1899.53 597.698 1910.99 591.344C1922.45 584.99 1935.29 581.812 1949.51 581.812C1959.2 581.812 1968.15 583.167 1976.38 585.875C1984.61 588.531 1991.85 592.437 1998.1 597.594C2004.35 602.698 2009.43 608.974 2013.34 616.422C2017.24 623.87 2019.66 632.385 2020.6 641.969ZM2042.73 744V584H2108.82C2120.8 584 2131.14 586.161 2139.84 590.484C2148.59 594.755 2155.33 600.901 2160.07 608.922C2164.81 616.891 2167.18 626.344 2167.18 637.281C2167.18 648.375 2164.76 657.802 2159.92 665.562C2155.07 673.271 2148.2 679.156 2139.29 683.219C2130.39 687.229 2119.84 689.234 2107.65 689.234H2065.86V658.766H2100.46C2106.3 658.766 2111.17 658.01 2115.07 656.5C2119.03 654.937 2122.03 652.594 2124.06 649.469C2126.09 646.292 2127.11 642.229 2127.11 637.281C2127.11 632.333 2126.09 628.245 2124.06 625.016C2122.03 621.734 2119.03 619.286 2115.07 617.672C2111.12 616.005 2106.25 615.172 2100.46 615.172H2081.4V744H2042.73ZM2132.81 670.875L2172.65 744H2130.46L2091.4 670.875H2132.81ZM2173.34 584H2216.54L2250.37 650.953H2251.77L2285.6 584H2328.8L2270.29 690.562V744H2231.85V690.562L2173.34 584ZM2345.02 744V584H2411.11C2423.09 584 2433.43 586.344 2442.13 591.031C2450.88 595.667 2457.62 602.151 2462.36 610.484C2467.1 618.766 2469.47 628.401 2469.47 639.391C2469.47 650.432 2467.05 660.094 2462.2 668.375C2457.41 676.604 2450.56 682.984 2441.66 687.516C2432.75 692.047 2422.18 694.312 2409.94 694.312H2369.16V663.844H2402.75C2408.58 663.844 2413.45 662.828 2417.36 660.797C2421.32 658.766 2424.31 655.927 2426.34 652.281C2428.38 648.583 2429.39 644.286 2429.39 639.391C2429.39 634.443 2428.38 630.172 2426.34 626.578C2424.31 622.932 2421.32 620.12 2417.36 618.141C2413.4 616.161 2408.53 615.172 2402.75 615.172H2383.69V744H2345.02ZM2483.3 615.406V584H2618.53V615.406H2570.02V744H2531.89V615.406H2483.3ZM2676.09 584V744H2637.42V584H2676.09ZM2851.38 664C2851.38 681.604 2848 696.526 2841.23 708.766C2834.46 721.005 2825.29 730.302 2813.73 736.656C2802.22 743.01 2789.3 746.187 2774.98 746.187C2760.6 746.187 2747.66 742.984 2736.15 736.578C2724.64 730.172 2715.5 720.875 2708.73 708.687C2702.01 696.448 2698.65 681.552 2698.65 664C2698.65 646.396 2702.01 631.474 2708.73 619.234C2715.5 606.995 2724.64 597.698 2736.15 591.344C2747.66 584.99 2760.6 581.812 2774.98 581.812C2789.3 581.812 2802.22 584.99 2813.73 591.344C2825.29 597.698 2834.46 606.995 2841.23 619.234C2848 631.474 2851.38 646.396 2851.38 664ZM2811.85 664C2811.85 653.583 2810.37 644.781 2807.4 637.594C2804.48 630.406 2800.26 624.964 2794.74 621.266C2789.27 617.568 2782.68 615.719 2774.98 615.719C2767.32 615.719 2760.73 617.568 2755.21 621.266C2749.69 624.964 2745.45 630.406 2742.48 637.594C2739.56 644.781 2738.1 653.583 2738.1 664C2738.1 674.417 2739.56 683.219 2742.48 690.406C2745.45 697.594 2749.69 703.036 2755.21 706.734C2760.73 710.432 2767.32 712.281 2774.98 712.281C2782.68 712.281 2789.27 710.432 2794.74 706.734C2800.26 703.036 2804.48 697.594 2807.4 690.406C2810.37 683.219 2811.85 674.417 2811.85 664ZM3010.13 584V744H2977.32L2913.65 651.656H2912.63V744H2873.96V584H2907.24L2970.21 676.187H2971.54V584H3010.13Z"/>
</mask>
<path d="M1202.59 631.969C1202.07 626.24 1199.76 621.786 1195.64 618.609C1191.58 615.38 1185.77 613.766 1178.22 613.766C1173.22 613.766 1169.05 614.417 1165.72 615.719C1162.39 617.021 1159.89 618.818 1158.22 621.109C1156.55 623.349 1155.69 625.927 1155.64 628.844C1155.54 631.24 1156.01 633.349 1157.05 635.172C1158.14 636.995 1159.7 638.609 1161.73 640.016C1163.82 641.37 1166.32 642.568 1169.23 643.609C1172.15 644.651 1175.43 645.562 1179.08 646.344L1192.83 649.469C1200.74 651.188 1207.72 653.479 1213.77 656.344C1219.86 659.208 1224.96 662.62 1229.08 666.578C1233.24 670.536 1236.4 675.094 1238.53 680.25C1240.67 685.406 1241.76 691.187 1241.81 697.594C1241.76 707.698 1239.21 716.37 1234.16 723.609C1229.1 730.849 1221.84 736.396 1212.36 740.25C1202.93 744.104 1191.55 746.031 1178.22 746.031C1164.83 746.031 1153.17 744.026 1143.22 740.016C1133.27 736.005 1125.54 729.911 1120.02 721.734C1114.49 713.557 1111.66 703.219 1111.5 690.719H1148.53C1148.84 695.875 1150.22 700.172 1152.67 703.609C1155.12 707.047 1158.48 709.651 1162.75 711.422C1167.07 713.193 1172.07 714.078 1177.75 714.078C1182.96 714.078 1187.39 713.375 1191.03 711.969C1194.73 710.563 1197.57 708.609 1199.55 706.109C1201.53 703.609 1202.54 700.745 1202.59 697.516C1202.54 694.495 1201.6 691.917 1199.78 689.781C1197.96 687.594 1195.15 685.719 1191.34 684.156C1187.59 682.542 1182.8 681.057 1176.97 679.703L1160.25 675.797C1146.4 672.62 1135.48 667.49 1127.52 660.406C1119.55 653.271 1115.59 643.635 1115.64 631.5C1115.59 621.604 1118.24 612.932 1123.61 605.484C1128.97 598.036 1136.4 592.229 1145.88 588.063C1155.35 583.896 1166.16 581.812 1178.3 581.812C1190.69 581.812 1201.45 583.922 1210.56 588.141C1219.73 592.307 1226.84 598.167 1231.89 605.719C1236.94 613.271 1239.52 622.021 1239.63 631.969H1202.59ZM1347.83 631.969C1347.31 626.24 1344.99 621.786 1340.88 618.609C1336.81 615.38 1331.01 613.766 1323.45 613.766C1318.45 613.766 1314.29 614.417 1310.95 615.719C1307.62 617.021 1305.12 618.818 1303.45 621.109C1301.79 623.349 1300.93 625.927 1300.88 628.844C1300.77 631.24 1301.24 633.349 1302.28 635.172C1303.38 636.995 1304.94 638.609 1306.97 640.016C1309.05 641.37 1311.55 642.568 1314.47 643.609C1317.39 644.651 1320.67 645.562 1324.31 646.344L1338.06 649.469C1345.98 651.188 1352.96 653.479 1359 656.344C1365.09 659.208 1370.2 662.62 1374.31 666.578C1378.48 670.536 1381.63 675.094 1383.77 680.25C1385.9 685.406 1386.99 691.187 1387.05 697.594C1386.99 707.698 1384.44 716.37 1379.39 723.609C1374.34 730.849 1367.07 736.396 1357.59 740.25C1348.17 744.104 1336.79 746.031 1323.45 746.031C1310.07 746.031 1298.4 744.026 1288.45 740.016C1278.51 736.005 1270.77 729.911 1265.25 721.734C1259.73 713.557 1256.89 703.219 1256.73 690.719H1293.77C1294.08 695.875 1295.46 700.172 1297.91 703.609C1300.35 707.047 1303.71 709.651 1307.98 711.422C1312.31 713.193 1317.31 714.078 1322.98 714.078C1328.19 714.078 1332.62 713.375 1336.27 711.969C1339.96 710.563 1342.8 708.609 1344.78 706.109C1346.76 703.609 1347.78 700.745 1347.83 697.516C1347.78 694.495 1346.84 691.917 1345.02 689.781C1343.19 687.594 1340.38 685.719 1336.58 684.156C1332.83 682.542 1328.04 681.057 1322.2 679.703L1305.48 675.797C1291.63 672.62 1280.72 667.49 1272.75 660.406C1264.78 653.271 1260.82 643.635 1260.88 631.5C1260.82 621.604 1263.48 612.932 1268.84 605.484C1274.21 598.036 1281.63 592.229 1291.11 588.063C1300.59 583.896 1311.4 581.812 1323.53 581.812C1335.93 581.812 1346.68 583.922 1355.8 588.141C1364.96 592.307 1372.07 598.167 1377.13 605.719C1382.18 613.271 1384.76 622.021 1384.86 631.969H1347.83ZM1406.58 744V584H1445.25V712.594H1511.81V744H1406.58ZM1579.1 744V584H1690.66V615.406H1617.77V648.219H1684.96V679.703H1617.77V712.594H1690.66V744H1579.1ZM1851.05 584V744H1818.24L1754.57 651.656H1753.55V744H1714.88V584H1748.16L1811.13 676.187H1812.46V584H1851.05ZM2020.6 641.969H1981.54C1981.02 637.958 1979.95 634.339 1978.34 631.109C1976.72 627.88 1974.59 625.12 1971.93 622.828C1969.27 620.536 1966.12 618.792 1962.48 617.594C1958.88 616.344 1954.9 615.719 1950.52 615.719C1942.76 615.719 1936.07 617.62 1930.45 621.422C1924.87 625.224 1920.58 630.719 1917.55 637.906C1914.59 645.094 1913.1 653.792 1913.1 664C1913.1 674.625 1914.61 683.531 1917.63 690.719C1920.71 697.854 1925 703.245 1930.52 706.891C1936.1 710.484 1942.68 712.281 1950.29 712.281C1954.56 712.281 1958.44 711.734 1961.93 710.641C1965.47 709.547 1968.57 707.958 1971.23 705.875C1973.93 703.74 1976.15 701.161 1977.87 698.141C1979.64 695.068 1980.86 691.604 1981.54 687.75L2020.6 687.984C2019.92 695.068 2017.87 702.047 2014.43 708.922C2011.04 715.797 2006.38 722.073 2000.45 727.75C1994.51 733.375 1987.27 737.854 1978.73 741.187C1970.24 744.521 1960.5 746.187 1949.51 746.187C1935.03 746.187 1922.06 743.01 1910.6 736.656C1899.2 730.25 1890.18 720.927 1883.57 708.687C1876.96 696.448 1873.65 681.552 1873.65 664C1873.65 646.396 1877.01 631.474 1883.73 619.234C1890.45 606.995 1899.53 597.698 1910.99 591.344C1922.45 584.99 1935.29 581.812 1949.51 581.812C1959.2 581.812 1968.15 583.167 1976.38 585.875C1984.61 588.531 1991.85 592.437 1998.1 597.594C2004.35 602.698 2009.43 608.974 2013.34 616.422C2017.24 623.87 2019.66 632.385 2020.6 641.969ZM2042.73 744V584H2108.82C2120.8 584 2131.14 586.161 2139.84 590.484C2148.59 594.755 2155.33 600.901 2160.07 608.922C2164.81 616.891 2167.18 626.344 2167.18 637.281C2167.18 648.375 2164.76 657.802 2159.92 665.562C2155.07 673.271 2148.2 679.156 2139.29 683.219C2130.39 687.229 2119.84 689.234 2107.65 689.234H2065.86V658.766H2100.46C2106.3 658.766 2111.17 658.01 2115.07 656.5C2119.03 654.937 2122.03 652.594 2124.06 649.469C2126.09 646.292 2127.11 642.229 2127.11 637.281C2127.11 632.333 2126.09 628.245 2124.06 625.016C2122.03 621.734 2119.03 619.286 2115.07 617.672C2111.12 616.005 2106.25 615.172 2100.46 615.172H2081.4V744H2042.73ZM2132.81 670.875L2172.65 744H2130.46L2091.4 670.875H2132.81ZM2173.34 584H2216.54L2250.37 650.953H2251.77L2285.6 584H2328.8L2270.29 690.562V744H2231.85V690.562L2173.34 584ZM2345.02 744V584H2411.11C2423.09 584 2433.43 586.344 2442.13 591.031C2450.88 595.667 2457.62 602.151 2462.36 610.484C2467.1 618.766 2469.47 628.401 2469.47 639.391C2469.47 650.432 2467.05 660.094 2462.2 668.375C2457.41 676.604 2450.56 682.984 2441.66 687.516C2432.75 692.047 2422.18 694.312 2409.94 694.312H2369.16V663.844H2402.75C2408.58 663.844 2413.45 662.828 2417.36 660.797C2421.32 658.766 2424.31 655.927 2426.34 652.281C2428.38 648.583 2429.39 644.286 2429.39 639.391C2429.39 634.443 2428.38 630.172 2426.34 626.578C2424.31 622.932 2421.32 620.12 2417.36 618.141C2413.4 616.161 2408.53 615.172 2402.75 615.172H2383.69V744H2345.02ZM2483.3 615.406V584H2618.53V615.406H2570.02V744H2531.89V615.406H2483.3ZM2676.09 584V744H2637.42V584H2676.09ZM2851.38 664C2851.38 681.604 2848 696.526 2841.23 708.766C2834.46 721.005 2825.29 730.302 2813.73 736.656C2802.22 743.01 2789.3 746.187 2774.98 746.187C2760.6 746.187 2747.66 742.984 2736.15 736.578C2724.64 730.172 2715.5 720.875 2708.73 708.687C2702.01 696.448 2698.65 681.552 2698.65 664C2698.65 646.396 2702.01 631.474 2708.73 619.234C2715.5 606.995 2724.64 597.698 2736.15 591.344C2747.66 584.99 2760.6 581.812 2774.98 581.812C2789.3 581.812 2802.22 584.99 2813.73 591.344C2825.29 597.698 2834.46 606.995 2841.23 619.234C2848 631.474 2851.38 646.396 2851.38 664ZM2811.85 664C2811.85 653.583 2810.37 644.781 2807.4 637.594C2804.48 630.406 2800.26 624.964 2794.74 621.266C2789.27 617.568 2782.68 615.719 2774.98 615.719C2767.32 615.719 2760.73 617.568 2755.21 621.266C2749.69 624.964 2745.45 630.406 2742.48 637.594C2739.56 644.781 2738.1 653.583 2738.1 664C2738.1 674.417 2739.56 683.219 2742.48 690.406C2745.45 697.594 2749.69 703.036 2755.21 706.734C2760.73 710.432 2767.32 712.281 2774.98 712.281C2782.68 712.281 2789.27 710.432 2794.74 706.734C2800.26 703.036 2804.48 697.594 2807.4 690.406C2810.37 683.219 2811.85 674.417 2811.85 664ZM3010.13 584V744H2977.32L2913.65 651.656H2912.63V744H2873.96V584H2907.24L2970.21 676.187H2971.54V584H3010.13Z" fill="white"/>
<path d="M1202.59 631.969L1201.6 632.059L1201.68 632.969H1202.59V631.969ZM1195.64 618.609L1195.02 619.392L1195.03 619.401L1195.64 618.609ZM1165.72 615.719L1165.35 614.787H1165.35L1165.72 615.719ZM1158.22 621.109L1159.02 621.706L1159.03 621.698L1158.22 621.109ZM1155.64 628.844L1156.64 628.887L1156.64 628.874L1156.64 628.862L1155.64 628.844ZM1157.05 635.172L1156.18 635.668L1156.18 635.677L1156.19 635.686L1157.05 635.172ZM1161.73 640.016L1161.17 640.838L1161.18 640.846L1161.19 640.854L1161.73 640.016ZM1169.23 643.609L1169.57 642.668L1169.23 643.609ZM1179.08 646.344L1179.3 645.369L1179.29 645.366L1179.08 646.344ZM1192.83 649.469L1192.61 650.444L1192.62 650.446L1192.83 649.469ZM1213.77 656.344L1213.34 657.247L1213.34 657.249L1213.77 656.344ZM1229.08 666.578L1228.38 667.299L1228.39 667.303L1229.08 666.578ZM1238.53 680.25L1237.61 680.633V680.633L1238.53 680.25ZM1241.81 697.594L1242.81 697.599L1242.81 697.586L1241.81 697.594ZM1234.16 723.609L1233.34 723.037L1234.16 723.609ZM1212.36 740.25L1211.98 739.324L1211.98 739.324L1212.36 740.25ZM1143.22 740.016L1143.59 739.088L1143.22 740.016ZM1120.02 721.734L1119.19 722.294L1120.02 721.734ZM1111.5 690.719V689.719H1110.49L1110.5 690.731L1111.5 690.719ZM1148.53 690.719L1149.53 690.658L1149.47 689.719H1148.53V690.719ZM1152.67 703.609L1151.86 704.189L1152.67 703.609ZM1162.75 711.422L1162.37 712.346L1162.37 712.347L1162.75 711.422ZM1191.03 711.969L1190.68 711.034L1190.67 711.036L1191.03 711.969ZM1199.55 706.109L1198.76 705.489L1199.55 706.109ZM1202.59 697.516L1203.59 697.532L1203.59 697.515L1203.59 697.498L1202.59 697.516ZM1199.78 689.781L1199.01 690.421L1199.02 690.431L1199.78 689.781ZM1191.34 684.156L1190.95 685.075L1190.96 685.078L1190.96 685.081L1191.34 684.156ZM1176.97 679.703L1176.74 680.677L1176.74 680.677L1176.97 679.703ZM1160.25 675.797L1160.48 674.823L1160.47 674.822L1160.25 675.797ZM1127.52 660.406L1126.85 661.151L1126.85 661.154L1127.52 660.406ZM1115.64 631.5L1116.64 631.504L1116.64 631.495L1115.64 631.5ZM1123.61 605.484L1122.8 604.9L1123.61 605.484ZM1145.88 588.062L1146.28 588.978V588.978L1145.88 588.062ZM1210.56 588.141L1210.14 589.048L1210.15 589.051L1210.56 588.141ZM1231.89 605.719L1232.72 605.163L1231.89 605.719ZM1239.63 631.969V632.969H1240.64L1240.62 631.958L1239.63 631.969ZM1203.59 631.878C1203.05 625.905 1200.61 621.184 1196.25 617.818L1195.03 619.401C1198.9 622.389 1201.1 626.574 1201.6 632.059L1203.59 631.878ZM1196.26 617.827C1191.96 614.405 1185.9 612.766 1178.22 612.766V614.766C1185.64 614.766 1191.2 616.355 1195.02 619.392L1196.26 617.827ZM1178.22 612.766C1173.14 612.766 1168.84 613.426 1165.35 614.787L1166.08 616.65C1169.26 615.408 1173.3 614.766 1178.22 614.766V612.766ZM1165.35 614.787C1161.89 616.141 1159.22 618.039 1157.41 620.521L1159.03 621.698C1160.56 619.596 1162.88 617.901 1166.08 616.65L1165.35 614.787ZM1157.42 620.512C1155.62 622.927 1154.7 625.71 1154.64 628.826L1156.64 628.862C1156.69 626.144 1157.48 623.77 1159.02 621.706L1157.42 620.512ZM1154.64 628.8C1154.53 631.357 1155.03 633.659 1156.18 635.668L1157.92 634.676C1156.98 633.039 1156.54 631.122 1156.64 628.887L1154.64 628.8ZM1156.19 635.686C1157.37 637.649 1159.04 639.364 1161.17 640.838L1162.3 639.193C1160.37 637.855 1158.91 636.34 1157.9 634.657L1156.19 635.686ZM1161.19 640.854C1163.35 642.26 1165.93 643.489 1168.9 644.551L1169.57 642.668C1166.71 641.646 1164.28 640.48 1162.28 639.177L1161.19 640.854ZM1168.9 644.551C1171.86 645.61 1175.19 646.533 1178.87 647.322L1179.29 645.366C1175.68 644.592 1172.44 643.692 1169.57 642.668L1168.9 644.551ZM1178.86 647.319L1192.61 650.444L1193.05 648.494L1179.3 645.369L1178.86 647.319ZM1192.62 650.446C1200.47 652.152 1207.38 654.422 1213.34 657.247L1214.19 655.44C1208.07 652.537 1201.02 650.223 1193.04 648.492L1192.62 650.446ZM1213.34 657.249C1219.35 660.075 1224.36 663.428 1228.38 667.299L1229.77 665.857C1225.57 661.811 1220.37 658.342 1214.19 655.439L1213.34 657.249ZM1228.39 667.303C1232.46 671.168 1235.53 675.61 1237.61 680.633L1239.46 679.867C1237.26 674.578 1234.03 669.905 1229.77 665.853L1228.39 667.303ZM1237.61 680.633C1239.69 685.654 1240.76 691.305 1240.81 697.602L1242.81 697.586C1242.76 691.07 1241.65 685.159 1239.46 679.867L1237.61 680.633ZM1240.81 697.589C1240.76 707.52 1238.26 715.987 1233.34 723.037L1234.98 724.182C1240.16 716.752 1242.76 707.876 1242.81 697.599L1240.81 697.589ZM1233.34 723.037C1228.41 730.094 1221.31 735.53 1211.98 739.324L1212.74 741.176C1222.36 737.261 1229.8 731.604 1234.98 724.182L1233.34 723.037ZM1211.98 739.324C1202.7 743.117 1191.46 745.031 1178.22 745.031V747.031C1191.64 747.031 1203.16 745.092 1212.74 741.176L1211.98 739.324ZM1178.22 745.031C1164.93 745.031 1153.4 743.04 1143.59 739.088L1142.84 740.943C1152.94 745.012 1164.74 747.031 1178.22 747.031V745.031ZM1143.59 739.088C1133.81 735.145 1126.24 729.172 1120.84 721.175L1119.19 722.294C1124.83 730.651 1132.73 736.865 1142.84 740.943L1143.59 739.088ZM1120.84 721.175C1115.46 713.198 1112.65 703.063 1112.5 690.706L1110.5 690.731C1110.66 703.374 1113.53 713.917 1119.19 722.294L1120.84 721.175ZM1111.5 691.719H1148.53V689.719H1111.5V691.719ZM1147.53 690.779C1147.85 696.08 1149.28 700.568 1151.86 704.189L1153.49 703.029C1151.17 699.775 1149.83 695.67 1149.53 690.658L1147.53 690.779ZM1151.86 704.189C1154.42 707.794 1157.94 710.51 1162.37 712.346L1163.13 710.498C1159.02 708.792 1155.82 706.3 1153.49 703.029L1151.86 704.189ZM1162.37 712.347C1166.84 714.177 1171.97 715.078 1177.75 715.078V713.078C1172.18 713.078 1167.31 712.209 1163.13 710.497L1162.37 712.347ZM1177.75 715.078C1183.04 715.078 1187.6 714.364 1191.39 712.902L1190.67 711.036C1187.17 712.386 1182.87 713.078 1177.75 713.078V715.078ZM1191.39 712.903C1195.21 711.448 1198.22 709.402 1200.33 706.73L1198.76 705.489C1196.92 707.817 1194.25 709.677 1190.68 711.034L1191.39 712.903ZM1200.33 706.73C1202.45 704.055 1203.54 700.978 1203.59 697.532L1201.59 697.499C1201.55 700.512 1200.6 703.163 1198.76 705.489L1200.33 706.73ZM1203.59 697.498C1203.54 694.264 1202.53 691.458 1200.54 689.132L1199.02 690.431C1200.68 692.375 1201.55 694.725 1201.59 697.533L1203.59 697.498ZM1200.55 689.141C1198.59 686.785 1195.61 684.83 1191.72 683.231L1190.96 685.081C1194.68 686.607 1197.33 688.402 1199.01 690.421L1200.55 689.141ZM1191.74 683.238C1187.92 681.592 1183.06 680.091 1177.19 678.729L1176.74 680.677C1182.54 682.024 1187.27 683.492 1190.95 685.075L1191.74 683.238ZM1177.2 678.729L1160.48 674.823L1160.02 676.771L1176.74 680.677L1177.2 678.729ZM1160.47 674.822C1146.73 671.671 1135.99 666.6 1128.18 659.659L1126.85 661.154C1134.98 668.38 1146.06 673.569 1160.03 676.772L1160.47 674.822ZM1128.18 659.661C1120.46 652.743 1116.59 643.397 1116.64 631.504L1114.64 631.496C1114.59 643.874 1118.64 653.798 1126.85 661.151L1128.18 659.661ZM1116.64 631.495C1116.59 621.793 1119.19 613.331 1124.42 606.069L1122.8 604.9C1117.3 612.533 1114.59 621.415 1114.64 631.505L1116.64 631.495ZM1124.42 606.069C1129.67 598.784 1136.94 593.082 1146.28 588.978L1145.47 587.147C1135.85 591.376 1128.28 597.289 1122.8 604.9L1124.42 606.069ZM1146.28 588.978C1155.61 584.876 1166.28 582.812 1178.3 582.812V580.812C1166.05 580.812 1155.1 582.916 1145.47 587.147L1146.28 588.978ZM1178.3 582.812C1190.58 582.812 1201.19 584.903 1210.14 589.048L1210.98 587.233C1201.71 582.941 1190.8 580.812 1178.3 580.812V582.812ZM1210.15 589.051C1219.16 593.149 1226.12 598.894 1231.06 606.275L1232.72 605.163C1227.56 597.44 1220.29 591.465 1210.98 587.23L1210.15 589.051ZM1231.06 606.275C1235.99 613.65 1238.52 622.206 1238.63 631.979L1240.62 631.958C1240.52 621.835 1237.89 612.892 1232.72 605.163L1231.06 606.275ZM1239.63 630.969H1202.59V632.969H1239.63V630.969ZM1347.83 631.969L1346.83 632.059L1346.91 632.969H1347.83V631.969ZM1340.88 618.609L1340.25 619.392L1340.26 619.401L1340.88 618.609ZM1310.95 615.719L1310.59 614.787L1310.95 615.719ZM1303.45 621.109L1304.26 621.706L1304.26 621.698L1303.45 621.109ZM1300.88 628.844L1301.87 628.887L1301.87 628.874L1301.87 628.862L1300.88 628.844ZM1302.28 635.172L1301.41 635.668L1301.42 635.677L1301.42 635.686L1302.28 635.172ZM1306.97 640.016L1306.4 640.838L1306.41 640.846L1306.42 640.854L1306.97 640.016ZM1314.47 643.609L1314.81 642.668L1314.47 643.609ZM1324.31 646.344L1324.53 645.369L1324.52 645.366L1324.31 646.344ZM1338.06 649.469L1337.84 650.444L1337.85 650.446L1338.06 649.469ZM1359 656.344L1358.57 657.247L1358.57 657.249L1359 656.344ZM1374.31 666.578L1373.62 667.299L1373.62 667.303L1374.31 666.578ZM1383.77 680.25L1382.84 680.633V680.633L1383.77 680.25ZM1387.05 697.594L1388.05 697.599L1388.05 697.586L1387.05 697.594ZM1379.39 723.609L1378.57 723.037L1379.39 723.609ZM1357.59 740.25L1357.22 739.324L1357.22 739.324L1357.59 740.25ZM1288.45 740.016L1288.83 739.088L1288.45 740.016ZM1265.25 721.734L1264.42 722.294L1265.25 721.734ZM1256.73 690.719V689.719H1255.72L1255.73 690.731L1256.73 690.719ZM1293.77 690.719L1294.76 690.658L1294.71 689.719H1293.77V690.719ZM1297.91 703.609L1297.09 704.189L1297.91 703.609ZM1307.98 711.422L1307.6 712.346L1307.61 712.347L1307.98 711.422ZM1336.27 711.969L1335.91 711.034L1335.91 711.036L1336.27 711.969ZM1344.78 706.109L1344 705.489L1344.78 706.109ZM1347.83 697.516L1348.83 697.532L1348.83 697.515L1348.83 697.498L1347.83 697.516ZM1345.02 689.781L1344.25 690.421L1344.26 690.431L1345.02 689.781ZM1336.58 684.156L1336.18 685.075L1336.19 685.078L1336.2 685.081L1336.58 684.156ZM1322.2 679.703L1321.98 680.677L1321.98 680.677L1322.2 679.703ZM1305.48 675.797L1305.71 674.823L1305.71 674.822L1305.48 675.797ZM1272.75 660.406L1272.08 661.151L1272.09 661.154L1272.75 660.406ZM1260.88 631.5L1261.88 631.504L1261.87 631.495L1260.88 631.5ZM1268.84 605.484L1268.03 604.9L1268.84 605.484ZM1291.11 588.062L1291.51 588.978V588.978L1291.11 588.062ZM1355.8 588.141L1355.38 589.048L1355.38 589.051L1355.8 588.141ZM1377.12 605.719L1377.96 605.163L1377.12 605.719ZM1384.86 631.969V632.969H1385.87L1385.86 631.958L1384.86 631.969ZM1348.82 631.878C1348.28 625.905 1345.85 621.184 1341.49 617.818L1340.26 619.401C1344.13 622.389 1346.33 626.574 1346.83 632.059L1348.82 631.878ZM1341.5 617.827C1337.19 614.405 1331.13 612.766 1323.45 612.766V614.766C1330.88 614.766 1336.43 616.355 1340.25 619.392L1341.5 617.827ZM1323.45 612.766C1318.37 612.766 1314.07 613.426 1310.59 614.787L1311.32 616.65C1314.5 615.408 1318.53 614.766 1323.45 614.766V612.766ZM1310.59 614.787C1307.12 616.141 1304.45 618.039 1302.64 620.521L1304.26 621.698C1305.79 619.596 1308.12 617.901 1311.32 616.65L1310.59 614.787ZM1302.65 620.512C1300.85 622.927 1299.93 625.71 1299.88 628.826L1301.87 628.862C1301.92 626.144 1302.72 623.77 1304.26 621.706L1302.65 620.512ZM1299.88 628.8C1299.76 631.357 1300.26 633.659 1301.41 635.668L1303.15 634.676C1302.21 633.039 1301.78 631.122 1301.87 628.887L1299.88 628.8ZM1301.42 635.686C1302.6 637.649 1304.27 639.364 1306.4 640.838L1307.54 639.193C1305.6 637.855 1304.15 636.34 1303.14 634.657L1301.42 635.686ZM1306.42 640.854C1308.59 642.26 1311.16 643.489 1314.13 644.551L1314.81 642.668C1311.94 641.646 1309.52 640.48 1307.51 639.177L1306.42 640.854ZM1314.13 644.551C1317.1 645.61 1320.42 646.533 1324.1 647.322L1324.52 645.366C1320.91 644.592 1317.67 643.692 1314.81 642.668L1314.13 644.551ZM1324.09 647.319L1337.84 650.444L1338.28 648.494L1324.53 645.369L1324.09 647.319ZM1337.85 650.446C1345.71 652.152 1352.61 654.422 1358.57 657.247L1359.43 655.44C1353.31 652.537 1346.25 650.223 1338.27 648.492L1337.85 650.446ZM1358.57 657.249C1364.59 660.075 1369.6 663.428 1373.62 667.299L1375.01 665.857C1370.8 661.811 1365.6 658.342 1359.43 655.439L1358.57 657.249ZM1373.62 667.303C1377.69 671.168 1380.76 675.61 1382.84 680.633L1384.69 679.867C1382.5 674.578 1379.27 669.905 1375 665.853L1373.62 667.303ZM1382.84 680.633C1384.92 685.654 1386 691.305 1386.05 697.602L1388.05 697.586C1387.99 691.07 1386.88 685.159 1384.69 679.867L1382.84 680.633ZM1386.05 697.589C1386 707.52 1383.49 715.987 1378.57 723.037L1380.21 724.182C1385.4 716.752 1387.99 707.876 1388.05 697.599L1386.05 697.589ZM1378.57 723.037C1373.65 730.094 1366.55 735.53 1357.22 739.324L1357.97 741.176C1367.6 737.261 1375.03 731.604 1380.21 724.182L1378.57 723.037ZM1357.22 739.324C1347.94 743.117 1336.69 745.031 1323.45 745.031V747.031C1336.88 747.031 1348.39 745.092 1357.97 741.176L1357.22 739.324ZM1323.45 745.031C1310.17 745.031 1298.63 743.04 1288.83 739.088L1288.08 740.943C1298.17 745.012 1309.97 747.031 1323.45 747.031V745.031ZM1288.83 739.088C1279.05 735.145 1271.48 729.172 1266.08 721.175L1264.42 722.294C1270.06 730.651 1277.96 736.865 1288.08 740.943L1288.83 739.088ZM1266.08 721.175C1260.69 713.198 1257.89 703.063 1257.73 690.706L1255.73 690.731C1255.89 703.374 1258.77 713.917 1264.42 722.294L1266.08 721.175ZM1256.73 691.719H1293.77V689.719H1256.73V691.719ZM1292.77 690.779C1293.09 696.08 1294.51 700.568 1297.09 704.189L1298.72 703.029C1296.4 699.775 1295.07 695.67 1294.76 690.658L1292.77 690.779ZM1297.09 704.189C1299.66 707.794 1303.17 710.51 1307.6 712.346L1308.37 710.498C1304.25 708.792 1301.05 706.3 1298.72 703.029L1297.09 704.189ZM1307.61 712.347C1312.07 714.177 1317.2 715.078 1322.98 715.078V713.078C1317.41 713.078 1312.54 712.209 1308.36 710.497L1307.61 712.347ZM1322.98 715.078C1328.28 715.078 1332.83 714.364 1336.63 712.902L1335.91 711.036C1332.41 712.386 1328.11 713.078 1322.98 713.078V715.078ZM1336.62 712.903C1340.45 711.448 1343.45 709.402 1345.57 706.73L1344 705.489C1342.15 707.817 1339.48 709.677 1335.91 711.034L1336.62 712.903ZM1345.57 706.73C1347.68 704.055 1348.77 700.978 1348.83 697.532L1346.83 697.499C1346.78 700.512 1345.84 703.163 1344 705.489L1345.57 706.73ZM1348.83 697.498C1348.77 694.264 1347.76 691.458 1345.78 689.132L1344.26 690.431C1345.92 692.375 1346.78 694.725 1346.83 697.533L1348.83 697.498ZM1345.78 689.141C1343.82 686.785 1340.85 684.83 1336.96 683.231L1336.2 685.081C1339.91 686.607 1342.56 688.402 1344.25 690.421L1345.78 689.141ZM1336.97 683.238C1333.15 681.592 1328.3 680.091 1322.43 678.729L1321.98 680.677C1327.78 682.024 1332.51 683.492 1336.18 685.075L1336.97 683.238ZM1322.43 678.729L1305.71 674.823L1305.26 676.771L1321.98 680.677L1322.43 678.729ZM1305.71 674.822C1291.96 671.671 1281.22 666.6 1273.41 659.659L1272.09 661.154C1280.21 668.38 1291.3 673.569 1305.26 676.772L1305.71 674.822ZM1273.42 659.661C1265.69 652.743 1261.82 643.397 1261.87 631.504L1259.88 631.496C1259.82 643.874 1263.87 653.798 1272.08 661.151L1273.42 659.661ZM1261.87 631.495C1261.82 621.793 1264.42 613.331 1269.66 606.069L1268.03 604.9C1262.53 612.533 1259.82 621.415 1259.88 631.505L1261.87 631.495ZM1269.66 606.069C1274.9 598.784 1282.17 593.082 1291.51 588.978L1290.71 587.147C1281.09 591.376 1273.51 597.289 1268.03 604.9L1269.66 606.069ZM1291.51 588.978C1300.84 584.876 1311.51 582.812 1323.53 582.812V580.812C1311.28 580.812 1300.33 582.916 1290.71 587.147L1291.51 588.978ZM1323.53 582.812C1335.82 582.812 1346.42 584.903 1355.38 589.048L1356.22 587.233C1346.94 582.941 1336.04 580.812 1323.53 580.812V582.812ZM1355.38 589.051C1364.4 593.149 1371.36 598.894 1376.29 606.275L1377.96 605.163C1372.79 597.44 1365.53 591.465 1356.21 587.23L1355.38 589.051ZM1376.29 606.275C1381.23 613.65 1383.76 622.206 1383.86 631.979L1385.86 631.958C1385.75 621.835 1383.13 612.892 1377.96 605.163L1376.29 606.275ZM1384.86 630.969H1347.83V632.969H1384.86V630.969ZM1406.58 744H1405.58V745H1406.58V744ZM1406.58 584V583H1405.58V584H1406.58ZM1445.25 584H1446.25V583H1445.25V584ZM1445.25 712.594H1444.25V713.594H1445.25V712.594ZM1511.81 712.594H1512.81V711.594H1511.81V712.594ZM1511.81 744V745H1512.81V744H1511.81ZM1407.58 744V584H1405.58V744H1407.58ZM1406.58 585H1445.25V583H1406.58V585ZM1444.25 584V712.594H1446.25V584H1444.25ZM1445.25 713.594H1511.81V711.594H1445.25V713.594ZM1510.81 712.594V744H1512.81V712.594H1510.81ZM1511.81 743H1406.58V745H1511.81V743ZM1579.1 744H1578.1V745H1579.1V744ZM1579.1 584V583H1578.1V584H1579.1ZM1690.66 584H1691.66V583H1690.66V584ZM1690.66 615.406V616.406H1691.66V615.406H1690.66ZM1617.77 615.406V614.406H1616.77V615.406H1617.77ZM1617.77 648.219H1616.77V649.219H1617.77V648.219ZM1684.96 648.219H1685.96V647.219H1684.96V648.219ZM1684.96 679.703V680.703H1685.96V679.703H1684.96ZM1617.77 679.703V678.703H1616.77V679.703H1617.77ZM1617.77 712.594H1616.77V713.594H1617.77V712.594ZM1690.66 712.594H1691.66V711.594H1690.66V712.594ZM1690.66 744V745H1691.66V744H1690.66ZM1580.1 744V584H1578.1V744H1580.1ZM1579.1 585H1690.66V583H1579.1V585ZM1689.66 584V615.406H1691.66V584H1689.66ZM1690.66 614.406H1617.77V616.406H1690.66V614.406ZM1616.77 615.406V648.219H1618.77V615.406H1616.77ZM1617.77 649.219H1684.96V647.219H1617.77V649.219ZM1683.96 648.219V679.703H1685.96V648.219H1683.96ZM1684.96 678.703H1617.77V680.703H1684.96V678.703ZM1616.77 679.703V712.594H1618.77V679.703H1616.77ZM1617.77 713.594H1690.66V711.594H1617.77V713.594ZM1689.66 712.594V744H1691.66V712.594H1689.66ZM1690.66 743H1579.1V745H1690.66V743ZM1851.05 584H1852.05V583H1851.05V584ZM1851.05 744V745H1852.05V744H1851.05ZM1818.24 744L1817.42 744.568L1817.71 745H1818.24V744ZM1754.57 651.656L1755.39 651.089L1755.09 650.656H1754.57V651.656ZM1753.55 651.656V650.656H1752.55V651.656H1753.55ZM1753.55 744V745H1754.55V744H1753.55ZM1714.88 744H1713.88V745H1714.88V744ZM1714.88 584V583H1713.88V584H1714.88ZM1748.16 584L1748.99 583.436L1748.69 583H1748.16V584ZM1811.13 676.188L1810.3 676.752L1810.6 677.188H1811.13V676.188ZM1812.46 676.188V677.188H1813.46V676.188H1812.46ZM1812.46 584V583H1811.46V584H1812.46ZM1850.05 584V744H1852.05V584H1850.05ZM1851.05 743H1818.24V745H1851.05V743ZM1819.06 743.432L1755.39 651.089L1753.74 652.224L1817.42 744.568L1819.06 743.432ZM1754.57 650.656H1753.55V652.656H1754.57V650.656ZM1752.55 651.656V744H1754.55V651.656H1752.55ZM1753.55 743H1714.88V745H1753.55V743ZM1715.88 744V584H1713.88V744H1715.88ZM1714.88 585H1748.16V583H1714.88V585ZM1747.33 584.564L1810.3 676.752L1811.95 675.623L1748.99 583.436L1747.33 584.564ZM1811.13 677.188H1812.46V675.188H1811.13V677.188ZM1813.46 676.188V584H1811.46V676.188H1813.46ZM1812.46 585H1851.05V583H1812.46V585ZM2020.6 641.969V642.969H2021.7L2021.6 641.871L2020.6 641.969ZM1981.54 641.969L1980.55 642.098L1980.66 642.969H1981.54V641.969ZM1978.34 631.109L1977.44 631.557L1978.34 631.109ZM1971.93 622.828L1972.58 622.071L1971.93 622.828ZM1962.48 617.594L1962.15 618.538L1962.16 618.541L1962.16 618.544L1962.48 617.594ZM1930.45 621.422L1929.89 620.593L1929.88 620.596L1930.45 621.422ZM1917.55 637.906L1916.63 637.519L1916.63 637.524L1917.55 637.906ZM1917.63 690.719L1916.71 691.106L1916.71 691.114L1917.63 690.719ZM1930.52 706.891L1929.97 707.725L1929.98 707.731L1930.52 706.891ZM1961.93 710.641L1961.63 709.685L1961.63 709.686L1961.93 710.641ZM1971.23 705.875L1971.84 706.662L1971.85 706.66L1971.23 705.875ZM1977.87 698.141L1977 697.641L1977 697.646L1977.87 698.141ZM1981.54 687.75L1981.55 686.75L1980.7 686.745L1980.55 687.577L1981.54 687.75ZM2020.6 687.984L2021.6 688.08L2021.7 686.991L2020.61 686.984L2020.6 687.984ZM2014.43 708.922L2013.54 708.475L2013.53 708.48L2014.43 708.922ZM2000.45 727.75L2001.13 728.476L2001.14 728.473L2000.45 727.75ZM1978.73 741.188L1978.36 740.256L1978.36 740.257L1978.73 741.188ZM1910.6 736.656L1910.11 737.528L1910.12 737.531L1910.6 736.656ZM1883.57 708.688L1884.45 708.212L1883.57 708.688ZM1883.73 619.234L1882.85 618.753L1883.73 619.234ZM1976.38 585.875L1976.07 586.825L1976.08 586.827L1976.38 585.875ZM1998.1 597.594L1997.47 598.365L1997.47 598.368L1998.1 597.594ZM2020.6 640.969H1981.54V642.969H2020.6V640.969ZM1982.53 641.84C1982 637.732 1980.9 634.003 1979.23 630.662L1977.44 631.557C1979 634.675 1980.04 638.185 1980.55 642.098L1982.53 641.84ZM1979.23 630.662C1977.56 627.318 1975.34 624.452 1972.58 622.071L1971.28 623.585C1973.83 625.788 1975.88 628.442 1977.44 631.557L1979.23 630.662ZM1972.58 622.071C1969.82 619.685 1966.55 617.879 1962.79 616.644L1962.16 618.544C1965.7 619.704 1968.73 621.388 1971.28 623.585L1972.58 622.071ZM1962.81 616.649C1959.09 615.357 1954.99 614.719 1950.52 614.719V616.719C1954.8 616.719 1958.67 617.33 1962.15 618.538L1962.81 616.649ZM1950.52 614.719C1942.59 614.719 1935.7 616.664 1929.89 620.593L1931.01 622.25C1936.44 618.575 1942.93 616.719 1950.52 616.719V614.719ZM1929.88 620.596C1924.13 624.523 1919.72 630.182 1916.63 637.519L1918.48 638.294C1921.43 631.256 1925.62 625.925 1931.01 622.248L1929.88 620.596ZM1916.63 637.524C1913.6 644.864 1912.1 653.7 1912.1 664H1914.1C1914.1 653.884 1915.57 645.323 1918.48 638.288L1916.63 637.524ZM1912.1 664C1912.1 674.713 1913.62 683.76 1916.71 691.106L1918.55 690.331C1915.6 683.302 1914.1 674.537 1914.1 664H1912.1ZM1916.71 691.114C1919.85 698.397 1924.26 703.954 1929.97 707.725L1931.07 706.056C1925.74 702.535 1921.56 697.311 1918.55 690.323L1916.71 691.114ZM1929.98 707.731C1935.74 711.444 1942.52 713.281 1950.29 713.281V711.281C1942.85 711.281 1936.45 709.525 1931.07 706.05L1929.98 707.731ZM1950.29 713.281C1954.64 713.281 1958.63 712.724 1962.23 711.595L1961.63 709.686C1958.25 710.745 1954.48 711.281 1950.29 711.281V713.281ZM1962.22 711.596C1965.87 710.47 1969.08 708.828 1971.84 706.662L1970.61 705.088C1968.06 707.089 1965.07 708.624 1961.63 709.685L1962.22 711.596ZM1971.85 706.66C1974.66 704.444 1976.95 701.767 1978.74 698.635L1977 697.646C1975.34 700.556 1973.21 703.035 1970.61 705.09L1971.85 706.66ZM1978.73 698.64C1980.57 695.456 1981.83 691.88 1982.52 687.923L1980.55 687.577C1979.9 691.328 1978.71 694.679 1977 697.641L1978.73 698.64ZM1981.53 688.75L2020.6 688.984L2020.61 686.984L1981.55 686.75L1981.53 688.75ZM2019.61 687.889C2018.94 694.84 2016.92 701.701 2013.54 708.475L2015.32 709.369C2018.81 702.393 2020.91 695.295 2021.6 688.08L2019.61 687.889ZM2013.53 708.48C2010.2 715.243 2005.61 721.425 1999.75 727.027L2001.14 728.473C2007.15 722.721 2011.89 716.351 2015.33 709.364L2013.53 708.48ZM1999.76 727.024C1993.92 732.55 1986.8 736.964 1978.36 740.256L1979.09 742.119C1987.74 738.744 1995.09 734.2 2001.13 728.476L1999.76 727.024ZM1978.36 740.257C1970.01 743.536 1960.4 745.188 1949.51 745.188V747.188C1960.6 747.188 1970.46 745.506 1979.09 742.118L1978.36 740.257ZM1949.51 745.188C1935.18 745.188 1922.38 742.045 1911.09 735.782L1910.12 737.531C1921.74 743.976 1934.88 747.188 1949.51 747.188V745.188ZM1911.09 735.784C1899.86 729.477 1890.98 720.296 1884.45 708.212L1882.69 709.163C1889.39 721.558 1898.53 731.023 1910.11 737.528L1911.09 735.784ZM1884.45 708.212C1877.93 696.152 1874.65 681.429 1874.65 664H1872.65C1872.65 681.676 1875.98 696.744 1882.69 709.163L1884.45 708.212ZM1874.65 664C1874.65 646.521 1877.98 631.774 1884.6 619.716L1882.85 618.753C1876.03 631.174 1872.65 646.271 1872.65 664H1874.65ZM1884.6 619.716C1891.24 607.63 1900.19 598.475 1911.48 592.218L1910.51 590.469C1898.87 596.921 1889.65 606.359 1882.85 618.753L1884.6 619.716ZM1911.48 592.218C1922.77 585.953 1935.44 582.812 1949.51 582.812V580.812C1935.13 580.812 1922.13 584.026 1910.51 590.469L1911.48 592.218ZM1949.51 582.812C1959.1 582.812 1967.95 584.153 1976.07 586.825L1976.7 584.925C1968.35 582.18 1959.29 580.812 1949.51 580.812V582.812ZM1976.08 586.827C1984.19 589.447 1991.32 593.294 1997.47 598.365L1998.74 596.822C1992.38 591.581 1985.03 587.616 1976.69 584.923L1976.08 586.827ZM1997.47 598.368C2003.61 603.384 2008.6 609.553 2012.45 616.886L2014.22 615.957C2010.26 608.395 2005.09 602.012 1998.73 596.819L1997.47 598.368ZM2012.45 616.886C2016.29 624.205 2018.68 632.593 2019.61 642.066L2021.6 641.871C2020.65 632.178 2018.2 623.535 2014.22 615.957L2012.45 616.886ZM2042.73 744H2041.73V745H2042.73V744ZM2042.73 584V583H2041.73V584H2042.73ZM2139.84 590.484L2139.39 591.38L2139.4 591.383L2139.84 590.484ZM2160.07 608.922L2159.21 609.431L2159.21 609.433L2160.07 608.922ZM2159.92 665.562L2160.76 666.095L2160.77 666.092L2159.92 665.562ZM2139.29 683.219L2139.7 684.131L2139.71 684.129L2139.29 683.219ZM2065.86 689.234H2064.86V690.234H2065.86V689.234ZM2065.86 658.766V657.766H2064.86V658.766H2065.86ZM2115.07 656.5L2115.43 657.433L2115.44 657.43L2115.07 656.5ZM2124.06 649.469L2124.9 650.014L2124.9 650.007L2124.06 649.469ZM2124.06 625.016L2123.21 625.542L2123.21 625.548L2124.06 625.016ZM2115.07 617.672L2114.69 618.594L2114.7 618.598L2115.07 617.672ZM2081.4 615.172V614.172H2080.4V615.172H2081.4ZM2081.4 744V745H2082.4V744H2081.4ZM2132.81 670.875L2133.69 670.397L2133.4 669.875H2132.81V670.875ZM2172.65 744V745H2174.34L2173.53 743.522L2172.65 744ZM2130.46 744L2129.58 744.471L2129.87 745H2130.46V744ZM2091.4 670.875V669.875H2089.73L2090.52 671.346L2091.4 670.875ZM2043.73 744V584H2041.73V744H2043.73ZM2042.73 585H2108.82V583H2042.73V585ZM2108.82 585C2120.68 585 2130.86 587.14 2139.39 591.38L2140.28 589.589C2131.42 585.183 2120.92 583 2108.82 583V585ZM2139.4 591.383C2147.98 595.572 2154.58 601.586 2159.21 609.431L2160.94 608.413C2156.09 600.216 2149.2 593.938 2140.28 589.586L2139.4 591.383ZM2159.21 609.433C2163.85 617.221 2166.18 626.491 2166.18 637.281H2168.18C2168.18 626.196 2165.78 616.56 2160.93 608.411L2159.21 609.433ZM2166.18 637.281C2166.18 648.228 2163.8 657.462 2159.07 665.033L2160.77 666.092C2165.73 658.142 2168.18 648.522 2168.18 637.281H2166.18ZM2159.07 665.03C2154.34 672.561 2147.62 678.321 2138.88 682.309L2139.71 684.129C2148.78 679.991 2155.81 673.981 2160.76 666.095L2159.07 665.03ZM2138.88 682.307C2130.13 686.247 2119.73 688.234 2107.65 688.234V690.234C2119.95 690.234 2130.64 688.212 2139.7 684.131L2138.88 682.307ZM2107.65 688.234H2065.86V690.234H2107.65V688.234ZM2066.86 689.234V658.766H2064.86V689.234H2066.86ZM2065.86 659.766H2100.46V657.766H2065.86V659.766ZM2100.46 659.766C2106.38 659.766 2111.38 659.001 2115.43 657.433L2114.71 655.567C2110.96 657.019 2106.22 657.766 2100.46 657.766V659.766ZM2115.44 657.43C2119.56 655.803 2122.74 653.337 2124.9 650.014L2123.22 648.924C2121.32 651.851 2118.5 654.072 2114.71 655.57L2115.44 657.43ZM2124.9 650.007C2127.06 646.626 2128.11 642.362 2128.11 637.281H2126.11C2126.11 642.097 2125.12 645.957 2123.22 648.93L2124.9 650.007ZM2128.11 637.281C2128.11 632.2 2127.06 627.913 2124.91 624.483L2123.21 625.548C2125.12 628.577 2126.11 632.467 2126.11 637.281H2128.11ZM2124.91 624.489C2122.75 621.009 2119.58 618.431 2115.45 616.746L2114.7 618.598C2118.48 620.142 2121.3 622.46 2123.21 625.542L2124.91 624.489ZM2115.46 616.75C2111.35 615.017 2106.34 614.172 2100.46 614.172V616.172C2106.16 616.172 2110.89 616.993 2114.69 618.594L2115.46 616.75ZM2100.46 614.172H2081.4V616.172H2100.46V614.172ZM2080.4 615.172V744H2082.4V615.172H2080.4ZM2081.4 743H2042.73V745H2081.4V743ZM2131.93 671.353L2171.77 744.478L2173.53 743.522L2133.69 670.397L2131.93 671.353ZM2172.65 743H2130.46V745H2172.65V743ZM2131.35 743.529L2092.28 670.404L2090.52 671.346L2129.58 744.471L2131.35 743.529ZM2091.4 671.875H2132.81V669.875H2091.4V671.875ZM2173.34 584V583H2171.65L2172.46 584.481L2173.34 584ZM2216.54 584L2217.43 583.549L2217.15 583H2216.54V584ZM2250.37 650.953L2249.47 651.404L2249.75 651.953H2250.37V650.953ZM2251.77 650.953V651.953H2252.39L2252.67 651.404L2251.77 650.953ZM2285.6 584V583H2284.99L2284.71 583.549L2285.6 584ZM2328.8 584L2329.68 584.481L2330.49 583H2328.8V584ZM2270.29 690.562L2269.41 690.081L2269.29 690.306V690.562H2270.29ZM2270.29 744V745H2271.29V744H2270.29ZM2231.85 744H2230.85V745H2231.85V744ZM2231.85 690.562H2232.85V690.306L2232.73 690.081L2231.85 690.562ZM2173.34 585H2216.54V583H2173.34V585ZM2215.65 584.451L2249.47 651.404L2251.26 650.502L2217.43 583.549L2215.65 584.451ZM2250.37 651.953H2251.77V649.953H2250.37V651.953ZM2252.67 651.404L2286.49 584.451L2284.71 583.549L2250.88 650.502L2252.67 651.404ZM2285.6 585H2328.8V583H2285.6V585ZM2327.93 583.519L2269.41 690.081L2271.17 691.044L2329.68 584.481L2327.93 583.519ZM2269.29 690.562V744H2271.29V690.562H2269.29ZM2270.29 743H2231.85V745H2270.29V743ZM2232.85 744V690.562H2230.85V744H2232.85ZM2232.73 690.081L2174.21 583.519L2172.46 584.481L2230.97 691.044L2232.73 690.081ZM2345.02 744H2344.02V745H2345.02V744ZM2345.02 584V583H2344.02V584H2345.02ZM2442.12 591.031L2441.65 591.912L2441.66 591.915L2442.12 591.031ZM2462.36 610.484L2461.49 610.979L2461.49 610.981L2462.36 610.484ZM2462.2 668.375L2461.34 667.87L2461.34 667.872L2462.2 668.375ZM2441.66 687.516L2442.11 688.407L2441.66 687.516ZM2369.16 694.312H2368.16V695.312H2369.16V694.312ZM2369.16 663.844V662.844H2368.16V663.844H2369.16ZM2417.36 660.797L2416.9 659.907L2416.9 659.91L2417.36 660.797ZM2426.34 652.281L2427.22 652.768L2427.22 652.763L2426.34 652.281ZM2426.34 626.578L2425.47 627.065L2425.47 627.07L2426.34 626.578ZM2417.36 618.141L2416.91 619.035L2417.36 618.141ZM2383.69 615.172V614.172H2382.69V615.172H2383.69ZM2383.69 744V745H2384.69V744H2383.69ZM2346.02 744V584H2344.02V744H2346.02ZM2345.02 585H2411.11V583H2345.02V585ZM2411.11 585C2422.96 585 2433.13 587.318 2441.65 591.912L2442.6 590.151C2433.73 585.37 2423.22 583 2411.11 583V585ZM2441.66 591.915C2450.24 596.464 2456.85 602.816 2461.49 610.979L2463.23 609.99C2458.39 601.486 2451.51 594.869 2442.59 590.148L2441.66 591.915ZM2461.49 610.981C2466.13 619.089 2468.47 628.549 2468.47 639.391H2470.47C2470.47 628.254 2468.07 618.442 2463.23 609.988L2461.49 610.981ZM2468.47 639.391C2468.47 650.282 2466.08 659.764 2461.34 667.87L2463.07 668.88C2468.01 660.424 2470.47 650.583 2470.47 639.391H2468.47ZM2461.34 667.872C2456.65 675.926 2449.95 682.176 2441.2 686.624L2442.11 688.407C2451.18 683.793 2458.17 677.282 2463.07 668.878L2461.34 667.872ZM2441.2 686.624C2432.47 691.07 2422.05 693.312 2409.94 693.312V695.312C2422.3 695.312 2433.03 693.024 2442.11 688.407L2441.2 686.624ZM2409.94 693.312H2369.16V695.312H2409.94V693.312ZM2370.16 694.312V663.844H2368.16V694.312H2370.16ZM2369.16 664.844H2402.75V662.844H2369.16V664.844ZM2402.75 664.844C2408.69 664.844 2413.73 663.81 2417.82 661.684L2416.9 659.91C2413.17 661.847 2408.47 662.844 2402.75 662.844V664.844ZM2417.82 661.687C2421.94 659.571 2425.08 656.598 2427.22 652.768L2425.47 651.795C2423.54 655.256 2420.7 657.96 2416.9 659.907L2417.82 661.687ZM2427.22 652.763C2429.34 648.895 2430.39 644.428 2430.39 639.391H2428.39C2428.39 644.145 2427.41 648.272 2425.47 651.8L2427.22 652.763ZM2430.39 639.391C2430.39 634.304 2429.35 629.857 2427.21 626.086L2425.47 627.07C2427.4 630.487 2428.39 634.581 2428.39 639.391H2430.39ZM2427.22 626.091C2425.08 622.259 2421.93 619.31 2417.81 617.246L2416.91 619.035C2420.7 620.93 2423.54 623.606 2425.47 627.065L2427.22 626.091ZM2417.81 617.246C2413.67 615.18 2408.64 614.172 2402.75 614.172V616.172C2408.42 616.172 2413.13 617.143 2416.91 619.035L2417.81 617.246ZM2402.75 614.172H2383.69V616.172H2402.75V614.172ZM2382.69 615.172V744H2384.69V615.172H2382.69ZM2383.69 743H2345.02V745H2383.69V743ZM2483.3 615.406H2482.3V616.406H2483.3V615.406ZM2483.3 584V583H2482.3V584H2483.3ZM2618.53 584H2619.53V583H2618.53V584ZM2618.53 615.406V616.406H2619.53V615.406H2618.53ZM2570.02 615.406V614.406H2569.02V615.406H2570.02ZM2570.02 744V745H2571.02V744H2570.02ZM2531.89 744H2530.89V745H2531.89V744ZM2531.89 615.406H2532.89V614.406H2531.89V615.406ZM2484.3 615.406V584H2482.3V615.406H2484.3ZM2483.3 585H2618.53V583H2483.3V585ZM2617.53 584V615.406H2619.53V584H2617.53ZM2618.53 614.406H2570.02V616.406H2618.53V614.406ZM2569.02 615.406V744H2571.02V615.406H2569.02ZM2570.02 743H2531.89V745H2570.02V743ZM2532.89 744V615.406H2530.89V744H2532.89ZM2531.89 614.406H2483.3V616.406H2531.89V614.406ZM2676.09 584H2677.09V583H2676.09V584ZM2676.09 744V745H2677.09V744H2676.09ZM2637.42 744H2636.42V745H2637.42V744ZM2637.42 584V583H2636.42V584H2637.42ZM2675.09 584V744H2677.09V584H2675.09ZM2676.09 743H2637.42V745H2676.09V743ZM2638.42 744V584H2636.42V744H2638.42ZM2637.42 585H2676.09V583H2637.42V585ZM2841.23 708.766L2840.35 708.282L2841.23 708.766ZM2813.73 736.656L2813.24 735.78L2813.24 735.781L2813.73 736.656ZM2736.15 736.578L2736.63 735.704L2736.15 736.578ZM2708.73 708.688L2707.85 709.169L2707.85 709.173L2708.73 708.688ZM2708.73 619.234L2707.85 618.75L2707.85 618.753L2708.73 619.234ZM2736.15 591.344L2736.63 592.219L2736.15 591.344ZM2813.73 591.344L2813.24 592.219L2813.24 592.22L2813.73 591.344ZM2841.23 619.234L2840.35 619.718L2841.23 619.234ZM2807.4 637.594L2806.47 637.97L2806.47 637.976L2807.4 637.594ZM2794.74 621.266L2794.18 622.094L2794.19 622.096L2794.74 621.266ZM2755.21 621.266L2755.77 622.096L2755.21 621.266ZM2742.48 637.594L2741.55 637.212L2741.55 637.218L2742.48 637.594ZM2742.48 690.406L2741.55 690.782L2741.55 690.788L2742.48 690.406ZM2755.21 706.734L2755.77 705.904L2755.21 706.734ZM2794.74 706.734L2794.19 705.904L2794.18 705.906L2794.74 706.734ZM2807.4 690.406L2806.47 690.024L2806.47 690.03L2807.4 690.406ZM2850.38 664C2850.38 681.478 2847.02 696.224 2840.35 708.282L2842.1 709.25C2848.97 696.828 2852.38 681.73 2852.38 664H2850.38ZM2840.35 708.282C2833.67 720.366 2824.63 729.522 2813.24 735.78L2814.21 737.533C2825.95 731.082 2835.25 721.644 2842.1 709.25L2840.35 708.282ZM2813.24 735.781C2801.89 742.046 2789.15 745.188 2774.98 745.188V747.188C2789.45 747.188 2802.54 743.975 2814.21 737.532L2813.24 735.781ZM2774.98 745.188C2760.76 745.188 2747.98 742.02 2736.63 735.704L2735.66 737.452C2747.33 743.948 2760.45 747.188 2774.98 747.188V745.188ZM2736.63 735.704C2725.3 729.394 2716.29 720.236 2709.6 708.202L2707.85 709.173C2714.71 721.514 2723.98 730.95 2735.66 737.452L2736.63 735.704ZM2709.6 708.206C2702.98 696.147 2699.65 681.426 2699.65 664H2697.65C2697.65 681.678 2701.03 696.748 2707.85 709.169L2709.6 708.206ZM2699.65 664C2699.65 646.521 2702.98 631.774 2709.6 619.716L2707.85 618.753C2701.03 631.174 2697.65 646.271 2697.65 664H2699.65ZM2709.6 619.718C2716.29 607.633 2725.3 598.477 2736.63 592.219L2735.67 590.468C2723.98 596.919 2714.71 606.357 2707.85 618.75L2709.6 619.718ZM2736.63 592.219C2747.98 585.954 2760.75 582.812 2774.98 582.812V580.812C2760.45 580.812 2747.34 584.025 2735.67 590.468L2736.63 592.219ZM2774.98 582.812C2789.15 582.812 2801.89 585.954 2813.24 592.219L2814.21 590.468C2802.54 584.025 2789.45 580.812 2774.98 580.812V582.812ZM2813.24 592.22C2824.63 598.478 2833.67 607.634 2840.35 619.718L2842.1 618.75C2835.25 606.356 2825.95 596.918 2814.21 590.467L2813.24 592.22ZM2840.35 619.718C2847.02 631.776 2850.38 646.522 2850.38 664H2852.38C2852.38 646.27 2848.97 631.172 2842.1 618.75L2840.35 619.718ZM2812.85 664C2812.85 653.494 2811.36 644.554 2808.32 637.212L2806.47 637.976C2809.38 645.008 2810.85 653.672 2810.85 664H2812.85ZM2808.33 637.218C2805.35 629.877 2801.01 624.262 2795.3 620.435L2794.19 622.096C2799.51 625.665 2803.62 630.936 2806.47 637.97L2808.33 637.218ZM2795.3 620.437C2789.64 616.61 2782.85 614.719 2774.98 614.719V616.719C2782.52 616.719 2788.91 618.526 2794.18 622.094L2795.3 620.437ZM2774.98 614.719C2767.15 614.719 2760.36 616.61 2754.65 620.435L2755.77 622.096C2761.1 618.525 2767.49 616.719 2774.98 616.719V614.719ZM2754.65 620.435C2748.94 624.26 2744.58 629.874 2741.55 637.212L2743.4 637.976C2746.31 630.939 2750.44 625.667 2755.77 622.096L2754.65 620.435ZM2741.55 637.218C2738.57 644.558 2737.1 653.496 2737.1 664H2739.1C2739.1 653.671 2740.55 645.005 2743.4 637.97L2741.55 637.218ZM2737.1 664C2737.1 674.504 2738.57 683.442 2741.55 690.782L2743.4 690.03C2740.55 682.995 2739.1 674.329 2739.1 664H2737.1ZM2741.55 690.788C2744.58 698.126 2748.94 703.74 2754.65 707.565L2755.77 705.904C2750.44 702.333 2746.31 697.061 2743.4 690.024L2741.55 690.788ZM2754.65 707.565C2760.36 711.389 2767.15 713.281 2774.98 713.281V711.281C2767.49 711.281 2761.1 709.475 2755.77 705.904L2754.65 707.565ZM2774.98 713.281C2782.85 713.281 2789.64 711.39 2795.3 707.563L2794.18 705.906C2788.91 709.474 2782.52 711.281 2774.98 711.281V713.281ZM2795.3 707.565C2801.01 703.738 2805.35 698.123 2808.33 690.782L2806.47 690.03C2803.62 697.064 2799.51 702.335 2794.19 705.904L2795.3 707.565ZM2808.32 690.788C2811.36 683.446 2812.85 674.506 2812.85 664H2810.85C2810.85 674.328 2809.38 682.992 2806.47 690.024L2808.32 690.788ZM3010.13 584H3011.13V583H3010.13V584ZM3010.13 744V745H3011.13V744H3010.13ZM2977.32 744L2976.5 744.568L2976.8 745H2977.32V744ZM2913.65 651.656L2914.47 651.089L2914.17 650.656H2913.65V651.656ZM2912.63 651.656V650.656H2911.63V651.656H2912.63ZM2912.63 744V745H2913.63V744H2912.63ZM2873.96 744H2872.96V745H2873.96V744ZM2873.96 584V583H2872.96V584H2873.96ZM2907.24 584L2908.07 583.436L2907.77 583H2907.24V584ZM2970.21 676.188L2969.39 676.752L2969.68 677.188H2970.21V676.188ZM2971.54 676.188V677.188H2972.54V676.188H2971.54ZM2971.54 584V583H2970.54V584H2971.54ZM3009.13 584V744H3011.13V584H3009.13ZM3010.13 743H2977.32V745H3010.13V743ZM2978.14 743.432L2914.47 651.089L2912.83 652.224L2976.5 744.568L2978.14 743.432ZM2913.65 650.656H2912.63V652.656H2913.65V650.656ZM2911.63 651.656V744H2913.63V651.656H2911.63ZM2912.63 743H2873.96V745H2912.63V743ZM2874.96 744V584H2872.96V744H2874.96ZM2873.96 585H2907.24V583H2873.96V585ZM2906.42 584.564L2969.39 676.752L2971.04 675.623L2908.07 583.436L2906.42 584.564ZM2970.21 677.188H2971.54V675.188H2970.21V677.188ZM2972.54 676.188V584H2970.54V676.188H2972.54ZM2971.54 585H3010.13V583H2971.54V585Z" fill="white" mask="url(#path-11-outside-1_0_3)"/>
</svg>
